<?xml version="1.0" encoding="UTF-8"?><svg id="b" xmlns="http://www.w3.org/2000/svg" viewBox="0 0 738.239 398.914"><g id="c"><path d="M365.046.023c-7.432.389-15.269,5.909-16.564,13.509-1.646,9.664,6.194,28.413,7.629,39.89,1.269,10.153-.502,25.467,1.338,33.662,2.122,9.445,18.478,9.093,20.554-1.017.096-10.896-1.539-21.827-.753-32.759.748-10.399,7.14-27.753,6.9-35.918-.289-9.829-9.29-17.88-19.105-17.366ZM437.975,12.04c-4.377.736-9.915,5.132-11.938,9.053-3.693,7.157-5.212,25.533-8.527,35.473-1.156,3.465-2.681,7.542-4.09,10.91-3.408,8.147-15.355,22.625-5.245,29.882,14.662,10.524,19.678-15.017,24.192-23.935,6.909-13.65,17.46-22.961,24.279-34.721,8.23-14.195-2.557-29.371-18.671-26.662ZM289.001,13.062c-13.023.513-20.956,13.182-15.785,25.254,3.336,7.789,16.34,20.097,21.83,29.171,4.861,8.034,10.223,24.811,14.732,30.268,6.415,7.762,20.783.967,18.417-9.381-6.392-12.655-12.852-24.567-16.674-38.362-3.758-13.565-2.954-37.72-22.521-36.949ZM255.239,282.295v-71l-1.5-1.5h-90.5v26h41v33.5c0,6.02-8.89,10.726-13.97,12.03-65.432,16.803-102.108-32.043-88.565-93.565,10.695-48.585,67.272-64.387,95.244-20.95l60.287-1.027c-28.538-59.495-118.922-65.73-169.305-32.798-61.847,40.426-56.265,143.269,15.045,169.573,28.287,10.434,96.234,10.491,124.524-.004,6.469-2.4,26.233-13.496,27.74-20.26ZM491.66,282.374c59.765,49.475,184.193,29.822,196.443-58.214,19.667-141.342-217.511-147.006-227.849-21.849-2.514,30.43,7.747,60.477,31.406,80.063ZM434.239,116.795h-145v188h150v-26h-98v-56h74v-31h-74v-49h93v-26ZM71.251,340.799c-19.259-3.766-54.867-3.957-67.45,14.059-5.582,7.992-4.707,19.311.604,27.27,12.68,19.001,47.006,18.136,66.851,14.186,2.642-1.484-2.387-10.064-3.603-10.35-14.189,4.433-59.154,3.859-51.473-20.733,3.661-11.722,20.753-15.946,31.565-16.422,7.672-.338,14.324,1.681,21.825,1.845l3.661-5.374-2.546-1.416.566-3.066ZM111.032,339.088c-16.815,1.73-36.706,11.223-34.682,31.096,3.932,38.594,84.097,36.591,86.925,3.155,2.458-29.051-29.313-36.61-52.243-34.251ZM314.161,340.884c-1.334-1.59-22.977-2.351-26.407-2.073-12.59,1.022-32.062,7.619-21.347,23.315,6.638,9.724,21.888,9.28,31.818,13.182,1.814.713,7.078,2.75,7.069,4.975-7.618,12.615-28.482,7.381-40.402,4.606l-3.727,6.34c2.95.644,2.32,3.514,3.028,4.044,1.445,1.082,7.465,2.05,9.667,2.401,12.892,2.056,52.393,2.096,45.594-19.602-5.196-16.581-30.368-12.196-41.159-21.896,6.818-10.997,23.702-7.279,34.352-4.533,1.116-.266,3.691-5.243,3.646-6.298-.022-.518-1.605-.304-2.025-1.309-.348-.833.307-2.659-.107-3.152ZM738.239,395.795v-27c0-.271-3.309.611-2-4h-31c-1.217,4.913,1.371,6.376,2,10h17l-.109,11.894c-14.32,4.132-59.628.404-46.442-23.945,8.684-16.035,40.279-14.225,55.454-11.018l3.092-6.438-3.002-.499,1.015-2.988c-21.845-6.358-78.207-4.011-74.028,29.521.711,5.701,6.152,13.882,10.693,17.3,17.773,13.379,46.586,9.36,67.328,7.172ZM190.739,339.795h-14.5v54c0,.089,1.362-.282,1.759.209l.243,3.788,12.003.008-.51-44.001,14.978,16.022c7.335,3.93,25.819,26.924,32.084,27.916,3.55.562,7.79-.269,11.442.057v-55c0-.231-2.41.293-2.571-3.069l-11.434.064.018,42.997c-.06-1.13-.725-2.213-1.471-3.028-13.061-14.266-28.586-26.08-42.041-39.964ZM330.239,339.795v37.5c0,5.615,8.366,14.95,13.626,17.374,17.006,7.838,54.436,6.33,57.264-17.485.605-5.097,1.057-29.596.072-33.669-.056-.233-2.56-1.944-2.542-3.786l-12.42.066v34.5c0,9.825-14.455,14.695-22.493,14.579-5.544-.08-17.298-3.397-18.485-9.601-1.851-9.671,2.116-26.755-.06-35.757-.056-.233-2.56-1.944-2.542-3.786l-12.42.066ZM418.239,339.795v54c0,.271,3.309-.611,2,4h53c1.217-4.916-1.372-6.377-2-10h-38v-45c0-.231-2.41.293-2.571-3.069l-12.429.069ZM533.239,339.795h-69c-1.217,4.916,1.372,6.377,2,10h26v44c0,.089,1.362-.282,1.759.209l.243,3.788,12.998.003v-48h28c1.217-4.916-1.372-6.377-2-10ZM542.239,339.795v54c0,.089,1.362-.282,1.759.209l.243,3.788,12.998.003v-55c0-.231-2.41.293-2.571-3.069l-12.429.069ZM589.739,339.795h-14.5v54c0,.089,1.362-.282,1.759.209l.243,3.788,11.998.003v-43l45.016,42.484,12.984.516v-55c0-.231-2.41.293-2.571-3.069l-11.434.064.51,42-44.005-41.995Z" style="fill:#fff;"/><path d="M491.66,282.374c-23.659-19.586-33.92-49.633-31.406-80.063,10.338-125.157,247.516-119.493,227.849,21.849-12.25,88.036-136.678,107.689-196.443,58.214ZM533.687,157.212c-36.095,39.632-21.014,131.041,41.004,130.621,64.54-.437,80.267-104.633,31.878-138.868-22.832-16.154-54.232-12.23-72.882,8.247Z"/><path d="M255.239,282.295c-1.507,6.764-21.271,17.86-27.74,20.26-28.291,10.495-96.237,10.438-124.524.004-71.31-26.304-76.892-129.147-15.045-169.573,50.383-32.933,140.767-26.697,169.305,32.798l-60.287,1.027c-27.972-43.437-84.549-27.635-95.244,20.95-13.543,61.522,23.133,110.368,88.565,93.565,5.08-1.305,13.97-6.011,13.97-12.03v-33.5h-41v-26h90.5l1.5,1.5v71Z"/><polygon points="434.239 116.795 434.239 142.795 341.239 142.795 341.239 191.795 415.239 191.795 415.239 222.795 341.239 222.795 341.239 278.795 439.239 278.795 439.239 304.795 289.239 304.795 289.239 116.795 434.239 116.795"/><path d="M111.032,339.088c22.93-2.359,54.701,5.2,52.243,34.251-2.828,33.436-82.993,35.439-86.925-3.155-2.025-19.873,17.867-29.366,34.682-31.096ZM116.017,349.076c-26.495,3.036-34.933,31.914-6.001,38.441,12.539,2.829,31.433-.244,36.71-13.735,7.455-19.061-15.822-26.412-30.71-24.706Z"/><path d="M738.239,395.795c-20.742,2.188-49.555,6.207-67.328-7.172-4.541-3.418-9.982-11.6-10.693-17.3-4.179-33.533,52.183-35.879,74.028-29.521l-1.015,2.988,3.002.499-3.092,6.438c-15.175-3.208-46.771-5.018-55.454,11.018-13.186,24.349,32.122,28.077,46.442,23.945l.109-11.894h-17c-.629-3.624-3.217-5.087-2-10h31c-1.309,4.611,2,3.729,2,4v27Z"/><path d="M190.739,339.795c13.456,13.884,28.981,25.698,42.041,39.964.747.816,1.412,1.899,1.471,3.028l-.018-42.997,11.434-.064c.161,3.362,2.571,2.839,2.571,3.069v55c-3.653-.326-7.893.505-11.442-.057-6.265-.993-24.749-23.986-32.084-27.916l-14.978-16.022.51,44.001-12.003-.008-.243-3.788c-.397-.491-1.759-.12-1.759-.209v-54h14.5Z"/><path d="M589.739,339.795l44.005,41.995-.51-42,11.434-.064c.161,3.362,2.571,2.839,2.571,3.069v55l-12.984-.516-45.016-42.484v43l-11.998-.003-.243-3.788c-.397-.491-1.759-.12-1.759-.209v-54h14.5Z"/><path d="M365.046.023c9.815-.514,18.816,7.537,19.105,17.366.24,8.166-6.152,25.52-6.9,35.918-.786,10.932.849,21.863.753,32.759-2.076,10.11-18.433,10.462-20.554,1.017-1.841-8.195-.069-23.509-1.338-33.662-1.435-11.477-9.275-30.227-7.629-39.89,1.295-7.6,9.132-13.119,16.564-13.509Z"/><path d="M289.001,13.062c19.567-.771,18.764,23.384,22.521,36.949,3.821,13.795,10.282,25.708,16.674,38.362,2.365,10.348-12.002,17.144-18.417,9.381-4.51-5.457-9.871-22.234-14.732-30.268-5.49-9.074-18.494-21.382-21.83-29.171-5.171-12.073,2.762-24.741,15.785-25.254Z"/><path d="M437.975,12.04c16.114-2.709,26.901,12.467,18.671,26.662-6.818,11.76-17.37,21.071-24.279,34.721-4.514,8.918-9.529,34.459-24.192,23.935-10.11-7.257,1.837-21.734,5.245-29.882,1.409-3.368,2.934-7.445,4.09-10.91,3.315-9.94,4.834-28.316,8.527-35.473,2.023-3.921,7.561-8.317,11.938-9.053Z"/><path d="M330.239,339.795l12.42-.066c-.018,1.843,2.486,3.554,2.542,3.786,2.177,9.003-1.791,26.087.06,35.757,1.188,6.204,12.941,9.521,18.485,9.601,8.038.116,22.493-4.755,22.493-14.579v-34.5l12.42-.066c-.018,1.843,2.486,3.554,2.542,3.786.985,4.073.533,28.572-.072,33.669-2.828,23.815-40.257,25.323-57.264,17.485-5.26-2.424-13.626-11.759-13.626-17.374v-37.5Z"/><path d="M314.161,340.884c.414.493-.241,2.319.107,3.152.42,1.005,2.004.791,2.025,1.309.044,1.055-2.53,6.032-3.646,6.298-10.65-2.746-27.534-6.464-34.352,4.533,10.791,9.7,35.963,5.315,41.159,21.896,6.799,21.697-32.702,21.657-45.594,19.602-2.201-.351-8.222-1.319-9.667-2.401-.708-.53-.078-3.4-3.028-4.044l3.727-6.34c11.92,2.774,32.784,8.009,40.402-4.606.008-2.225-5.255-4.262-7.069-4.975-9.93-3.901-25.18-3.458-31.818-13.182-10.715-15.696,8.757-22.293,21.347-23.315,3.43-.279,25.073.483,26.407,2.073Z"/><path d="M71.251,340.799l-.566,3.066,2.546,1.416-3.661,5.374c-7.501-.165-14.153-2.183-21.825-1.845-10.812.476-27.904,4.7-31.565,16.422-7.681,24.592,37.284,25.166,51.473,20.733,1.217.286,6.245,8.866,3.603,10.35-19.845,3.949-54.171,4.815-66.851-14.186-5.311-7.959-6.186-19.278-.604-27.27,12.583-18.016,48.191-17.825,67.45-14.059Z"/><path d="M533.239,339.795c.628,3.623,3.217,5.084,2,10h-28v48l-12.998-.003-.243-3.788c-.397-.491-1.759-.12-1.759-.209v-44h-26c-.628-3.623-3.217-5.084-2-10h69Z"/><path d="M418.239,339.795l12.429-.069c.161,3.362,2.571,2.839,2.571,3.069v45h38c.628,3.623,3.217,5.084,2,10h-53c1.309-4.611-2-3.729-2-4v-54Z"/><path d="M542.239,339.795l12.429-.069c.161,3.362,2.571,2.839,2.571,3.069v55l-12.998-.003-.243-3.788c-.397-.491-1.759-.12-1.759-.209v-54Z"/><path d="M533.687,157.212c18.649-20.477,50.05-24.401,72.882-8.247,48.389,34.235,32.662,138.431-31.878,138.868-62.018.42-77.099-90.989-41.004-130.621Z" style="fill:#fff;"/><path d="M116.017,349.076c14.887-1.706,38.165,5.646,30.71,24.706-5.277,13.492-24.171,16.564-36.71,13.735-28.932-6.527-20.494-35.406,6.001-38.441Z" style="fill:#fff;"/></g></svg>