<?xml version="1.0" encoding="UTF-8"?><svg id="b" xmlns="http://www.w3.org/2000/svg" viewBox="0 0 738.239 398.914"><g id="c"><path d="M491.66,282.374c-23.659-19.586-33.92-49.633-31.406-80.063,10.338-125.157,247.516-119.493,227.849,21.849-12.25,88.036-136.678,107.689-196.443,58.214ZM533.687,157.212c-36.095,39.632-21.014,131.041,41.004,130.621,64.54-.437,80.267-104.633,31.878-138.868-22.832-16.154-54.232-12.23-72.882,8.247Z" style="fill:#fff;"/><path d="M255.239,282.295c-1.507,6.764-21.271,17.86-27.74,20.26-28.291,10.495-96.237,10.438-124.524.004-71.31-26.304-76.892-129.147-15.045-169.573,50.383-32.933,140.767-26.697,169.305,32.798l-60.287,1.027c-27.972-43.437-84.549-27.635-95.244,20.95-13.543,61.522,23.133,110.368,88.565,93.565,5.08-1.305,13.97-6.011,13.97-12.03v-33.5h-41v-26h90.5l1.5,1.5v71Z" style="fill:#fff;"/><polygon points="434.239 116.795 434.239 142.795 341.239 142.795 341.239 191.795 415.239 191.795 415.239 222.795 341.239 222.795 341.239 278.795 439.239 278.795 439.239 304.795 289.239 304.795 289.239 116.795 434.239 116.795" style="fill:#fff;"/><path d="M111.032,339.088c22.93-2.359,54.701,5.2,52.243,34.251-2.828,33.436-82.993,35.439-86.925-3.155-2.025-19.873,17.867-29.366,34.682-31.096ZM116.017,349.076c-26.495,3.036-34.933,31.914-6.001,38.441,12.539,2.829,31.433-.244,36.71-13.735,7.455-19.061-15.822-26.412-30.71-24.706Z" style="fill:#fff;"/><path d="M738.239,395.795c-20.742,2.188-49.555,6.207-67.328-7.172-4.541-3.418-9.982-11.6-10.693-17.3-4.179-33.533,52.183-35.879,74.028-29.521l-1.015,2.988,3.002.499-3.092,6.438c-15.175-3.208-46.771-5.018-55.454,11.018-13.186,24.349,32.122,28.077,46.442,23.945l.109-11.894h-17c-.629-3.624-3.217-5.087-2-10h31c-1.309,4.611,2,3.729,2,4v27Z" style="fill:#fff;"/><path d="M190.739,339.795c13.456,13.884,28.981,25.698,42.041,39.964.747.816,1.412,1.899,1.471,3.028l-.018-42.997,11.434-.064c.161,3.362,2.571,2.839,2.571,3.069v55c-3.653-.326-7.893.505-11.442-.057-6.265-.993-24.749-23.986-32.084-27.916l-14.978-16.022.51,44.001-12.003-.008-.243-3.788c-.397-.491-1.759-.12-1.759-.209v-54h14.5Z" style="fill:#fff;"/><path d="M589.739,339.795l44.005,41.995-.51-42,11.434-.064c.161,3.362,2.571,2.839,2.571,3.069v55l-12.984-.516-45.016-42.484v43l-11.998-.003-.243-3.788c-.397-.491-1.759-.12-1.759-.209v-54h14.5Z" style="fill:#fff;"/><path d="M365.046.023c9.815-.514,18.816,7.537,19.105,17.366.24,8.166-6.152,25.52-6.9,35.918-.786,10.932.849,21.863.753,32.759-2.076,10.11-18.433,10.462-20.554,1.017-1.841-8.195-.069-23.509-1.338-33.662-1.435-11.477-9.275-30.227-7.629-39.89,1.295-7.6,9.132-13.119,16.564-13.509Z" style="fill:#fff;"/><path d="M289.001,13.062c19.567-.771,18.764,23.384,22.521,36.949,3.821,13.795,10.282,25.708,16.674,38.362,2.365,10.348-12.002,17.144-18.417,9.381-4.51-5.457-9.871-22.234-14.732-30.268-5.49-9.074-18.494-21.382-21.83-29.171-5.171-12.073,2.762-24.741,15.785-25.254Z" style="fill:#fff;"/><path d="M437.975,12.04c16.114-2.709,26.901,12.467,18.671,26.662-6.818,11.76-17.37,21.071-24.279,34.721-4.514,8.918-9.529,34.459-24.192,23.935-10.11-7.257,1.837-21.734,5.245-29.882,1.409-3.368,2.934-7.445,4.09-10.91,3.315-9.94,4.834-28.316,8.527-35.473,2.023-3.921,7.561-8.317,11.938-9.053Z" style="fill:#fff;"/><path d="M330.239,339.795l12.42-.066c-.018,1.843,2.486,3.554,2.542,3.786,2.177,9.003-1.791,26.087.06,35.757,1.188,6.204,12.941,9.521,18.485,9.601,8.038.116,22.493-4.755,22.493-14.579v-34.5l12.42-.066c-.018,1.843,2.486,3.554,2.542,3.786.985,4.073.533,28.572-.072,33.669-2.828,23.815-40.257,25.323-57.264,17.485-5.26-2.424-13.626-11.759-13.626-17.374v-37.5Z" style="fill:#fff;"/><path d="M314.161,340.884c.414.493-.241,2.319.107,3.152.42,1.005,2.004.791,2.025,1.309.044,1.055-2.53,6.032-3.646,6.298-10.65-2.746-27.534-6.464-34.352,4.533,10.791,9.7,35.963,5.315,41.159,21.896,6.799,21.697-32.702,21.657-45.594,19.602-2.201-.351-8.222-1.319-9.667-2.401-.708-.53-.078-3.4-3.028-4.044l3.727-6.34c11.92,2.774,32.784,8.009,40.402-4.606.008-2.225-5.255-4.262-7.069-4.975-9.93-3.901-25.18-3.458-31.818-13.182-10.715-15.696,8.757-22.293,21.347-23.315,3.43-.279,25.073.483,26.407,2.073Z" style="fill:#fff;"/><path d="M71.251,340.799l-.566,3.066,2.546,1.416-3.661,5.374c-7.501-.165-14.153-2.183-21.825-1.845-10.812.476-27.904,4.7-31.565,16.422-7.681,24.592,37.284,25.166,51.473,20.733,1.217.286,6.245,8.866,3.603,10.35-19.845,3.949-54.171,4.815-66.851-14.186-5.311-7.959-6.186-19.278-.604-27.27,12.583-18.016,48.191-17.825,67.45-14.059Z" style="fill:#fff;"/><path d="M533.239,339.795c.628,3.623,3.217,5.084,2,10h-28v48l-12.998-.003-.243-3.788c-.397-.491-1.759-.12-1.759-.209v-44h-26c-.628-3.623-3.217-5.084-2-10h69Z" style="fill:#fff;"/><path d="M418.239,339.795l12.429-.069c.161,3.362,2.571,2.839,2.571,3.069v45h38c.628,3.623,3.217,5.084,2,10h-53c1.309-4.611-2-3.729-2-4v-54Z" style="fill:#fff;"/><path d="M542.239,339.795l12.429-.069c.161,3.362,2.571,2.839,2.571,3.069v55l-12.998-.003-.243-3.788c-.397-.491-1.759-.12-1.759-.209v-54Z" style="fill:#fff;"/><path d="M533.687,157.212c18.649-20.477,50.05-24.401,72.882-8.247,48.389,34.235,32.662,138.431-31.878,138.868-62.018.42-77.099-90.989-41.004-130.621Z" style="fill:none; stroke:#fff; stroke-miterlimit:10;"/><path d="M116.017,349.076c14.887-1.706,38.165,5.646,30.71,24.706-5.277,13.492-24.171,16.564-36.71,13.735-28.932-6.527-20.494-35.406,6.001-38.441Z" style="fill:none; stroke:#fff; stroke-miterlimit:10;"/></g></svg>